<svg xmlns="http://www.w3.org/2000/svg" width="18.063" height="18.281" viewBox="0 0 18.063 18.281"><defs><style>.cls-1{fill:#6d6e71;fill-rule:evenodd}</style></defs><path id="icon" class="cls-1" d="M443.828 41.6h-13.457a2.258 2.258 0 0 1-2.243-2.273V25.694a2.365 2.365 0 0 1 2.257-2.38h13.547a2.281 2.281 0 0 1 2.257 2.286v13.714a2.372 2.372 0 0 1-2.361 2.286zm1.233-16a1.141 1.141 0 0 0-1.129-1.143h-13.547a1.233 1.233 0 0 0-1.136 1.237v13.634a1.129 1.129 0 0 0 1.122 1.136h13.457a1.24 1.24 0 0 0 1.233-1.15V25.6zm-3.387 10.286h-9.031a.571.571 0 0 1 0-1.143h9.031a.571.571 0 0 1 0 1.143zm0-3.429h-9.031a.571.571 0 0 1 0-1.143h9.031a.571.571 0 0 1 0 1.143zm0-3.428h-9.031a.572.572 0 0 1 0-1.143h9.031a.572.572 0 0 1 0 1.143z" transform="translate(-428.125 -23.313)"/></svg>