<svg xmlns="http://www.w3.org/2000/svg" width="20.82" height="21" viewBox="0 0 20.82 21"><defs><style>.cls-1{fill:#26658e;fill-rule:evenodd}</style></defs><path id="instagram" class="cls-1" d="M1491.55 42h-15.6a2.61 2.61 0 0 1-2.6-2.625v-15.75a2.61 2.61 0 0 1 2.6-2.625h15.6a2.61 2.61 0 0 1 2.6 2.625v15.75a2.61 2.61 0 0 1-2.6 2.625zm-7.8-14.569a4.01 4.01 0 0 0-3.65 2.362h-.01c-.01.015-.01.03-.02.045-.03.086-.07.175-.1.264-.02.043-.03.085-.05.128a2.634 2.634 0 0 0-.07.278.656.656 0 0 0-.04.131c-.02.1-.03.2-.05.3a.527.527 0 0 1-.02.123c-.01.143-.02.288-.02.435a4.03 4.03 0 1 0 8.06 0c0-.147-.01-.292-.02-.435a.527.527 0 0 1-.02-.123c-.02-.1-.03-.2-.05-.3a.656.656 0 0 0-.04-.131 2.634 2.634 0 0 0-.07-.278c-.02-.043-.03-.085-.05-.128-.03-.089-.07-.177-.1-.264-.01-.015-.01-.03-.02-.045h-.01a4.01 4.01 0 0 0-3.65-2.361zm8.06-3.019a1.047 1.047 0 0 0-1.04-1.05h-2.08a1.047 1.047 0 0 0-1.04 1.05v2.1a1.048 1.048 0 0 0 1.04 1.05h2.08a1.048 1.048 0 0 0 1.04-1.05v-2.1zm0 5.381h-1.92a6.37 6.37 0 1 1-12.28 0h-1.92v8.794a1.048 1.048 0 0 0 1.04 1.05h14.04a1.048 1.048 0 0 0 1.04-1.05v-8.793z" transform="translate(-1473.34 -21)"/></svg>