<svg xmlns="http://www.w3.org/2000/svg" width="18.062" height="21.031" viewBox="0 0 18.062 21.031"><defs><style>.cls-1{fill:#6d6e71;fill-rule:evenodd}</style></defs><path id="icon" class="cls-1" d="M547.464 41.6h-12.9a2.605 2.605 0 0 1-2.581-2.629V25.828a2.606 2.606 0 0 1 2.581-2.629h1.936v-1.313h1.737a3.593 3.593 0 0 1 5.556 0h1.738V23.2h1.935a2.6 2.6 0 0 1 2.58 2.629v13.143a2.6 2.6 0 0 1-2.582 2.628zm-3.225-18.4H542.8a1.879 1.879 0 0 0-3.584 0h-1.433v2.629h6.451V23.2zm4.515 2.629a1.3 1.3 0 0 0-1.29-1.314h-1.935v2.628H536.5v-2.628h-1.935a1.3 1.3 0 0 0-1.29 1.314v13.143a1.3 1.3 0 0 0 1.29 1.314h12.9a1.3 1.3 0 0 0 1.29-1.314V25.828zm-3.225 11.829H536.5a.657.657 0 0 1 0-1.314h9.031a.657.657 0 0 1-.002 1.313zm0-3.286H536.5a.657.657 0 0 1 0-1.314h9.031a.657.657 0 0 1-.002 1.314zm0-3.285H536.5a.657.657 0 0 1 0-1.315h9.031a.657.657 0 0 1-.002 1.314z" transform="translate(-531.969 -20.563)"/></svg>