<svg xmlns="http://www.w3.org/2000/svg" width="18.062" height="18.281" viewBox="0 0 18.062 18.281"><defs><style>.cls-1{fill:#6d6e71;fill-rule:evenodd}</style></defs><path id="icon" class="cls-1" d="M748.723 41.6a9.144 9.144 0 1 1 9.03-9.143 9.088 9.088 0 0 1-9.03 9.143zm6.545-4.669a8 8 0 0 0 1.335-3.9h-4.518a22.475 22.475 0 0 1-.283 3.09 19.635 19.635 0 0 1 3.466.81zm-8.777-3.9a20.074 20.074 0 0 0 .291 2.947c.635-.056 1.281-.089 1.941-.089s1.305.033 1.94.089a20.074 20.074 0 0 0 .291-2.947h-4.463zm4.463-1.143a20.067 20.067 0 0 0-.291-2.947c-.635.056-1.281.089-1.94.089s-1.306-.033-1.941-.089a20.067 20.067 0 0 0-.291 2.947h4.463zm3.536 6.03a18.532 18.532 0 0 0-2.909-.671 18.758 18.758 0 0 1-.92 2.959 7.893 7.893 0 0 0 3.829-2.29zm-6.315 2.513c.181.013.363.028.548.028s.366-.015.547-.028a17.173 17.173 0 0 0 1.158-3.335c-.561-.049-1.13-.079-1.705-.079s-1.145.03-1.706.079a17.173 17.173 0 0 0 1.158 3.333zm-1.391-.224a18.758 18.758 0 0 1-.92-2.959 18.532 18.532 0 0 0-2.909.671 7.893 7.893 0 0 0 3.829 2.281zm-1.141-4.086a22.475 22.475 0 0 1-.283-3.09h-4.518a7.993 7.993 0 0 0 1.336 3.9 19.6 19.6 0 0 1 3.465-.812zm-3.465-8.135a7.992 7.992 0 0 0-1.336 3.9h4.518a22.474 22.474 0 0 1 .283-3.09 19.576 19.576 0 0 1-3.465-.813zm.777-.986a18.6 18.6 0 0 0 2.909.671 18.781 18.781 0 0 1 .92-2.96A7.894 7.894 0 0 0 742.955 27zm6.315-2.513c-.181-.013-.362-.028-.547-.028s-.367.015-.548.028a17.19 17.19 0 0 0-1.158 3.335c.561.05 1.13.079 1.706.079s1.144-.03 1.705-.079a17.19 17.19 0 0 0-1.158-3.337zm1.391.224a18.781 18.781 0 0 1 .92 2.96A18.573 18.573 0 0 0 754.49 27a7.894 7.894 0 0 0-3.829-2.29zM751.8 28.8a22.474 22.474 0 0 1 .283 3.09h4.517a8 8 0 0 0-1.335-3.9 19.608 19.608 0 0 1-3.465.81z" transform="translate(-739.688 -23.313)"/></svg>