<svg xmlns="http://www.w3.org/2000/svg" width="32" height="27.97" viewBox="0 0 32 27.97"><defs><style>.cls-1{fill:#adff63;fill-rule:evenodd}</style></defs><path id="icon" class="cls-1" d="M980.2 1083.11a9.643 9.643 0 0 0-13.192-.29 9.643 9.643 0 0 0-13.192.29 9.391 9.391 0 0 0 0 13.39c1.069 1.06 11.053 10.93 11.053 10.93a3.046 3.046 0 0 0 4.278 0l11.053-10.93a9.391 9.391 0 0 0 0-13.39zm-1.427 11.98l-11.053 10.93a1.014 1.014 0 0 1-1.425 0l-11.052-10.93a7.418 7.418 0 0 1 0-10.57 7.6 7.6 0 0 1 10.409-.22l1.356 1.22 1.356-1.22a7.6 7.6 0 0 1 10.409.22 7.418 7.418 0 0 1-.004 10.57zm-18.514-9.75v.01a4.245 4.245 0 0 0-4.246 4.24.5.5 0 0 0 1 0 3.254 3.254 0 0 1 3.249-3.25.5.5 0 0 0 .5-.5.5.5 0 0 0-.507-.5z" transform="translate(-951 -1080.34)"/></svg>