<svg xmlns="http://www.w3.org/2000/svg" width="29.34" height="23.656" viewBox="0 0 29.34 23.656"><defs><style>.cls-1{fill:#6d6e71;fill-rule:evenodd}</style></defs><path id="icon" class="cls-1" d="M1543.33 218.271h-22.02a3.652 3.652 0 0 1-3.67-3.638V198.26a3.651 3.651 0 0 1 3.67-3.637h22.02a3.651 3.651 0 0 1 3.67 3.637v16.373a3.652 3.652 0 0 1-3.67 3.638zm-21.1-21.829l10.09 8.7 10.09-8.7h-20.18zm22.94 1.818a1.8 1.8 0 0 0-.59-1.323l-12.26 10.419-12.26-10.419a1.787 1.787 0 0 0-.58 1.323v16.373a1.825 1.825 0 0 0 1.83 1.819h22.02a1.834 1.834 0 0 0 1.84-1.819V198.26z" transform="translate(-1517.66 -194.625)"/></svg>