<svg xmlns="http://www.w3.org/2000/svg" width="24.97" height="34" viewBox="0 0 24.97 34"><defs><style>.cls-1{fill:#1faae2;fill-rule:evenodd;filter:url(#filter)}</style><filter id="filter" x="1446.97" y="190" width="24.97" height="34" filterUnits="userSpaceOnUse"><feFlood result="flood" flood-color="#6d6e71"/><feComposite result="composite" operator="in" in2="SourceGraphic"/><feBlend result="blend" in2="SourceGraphic"/></filter></defs><path id="icon" class="cls-1" d="M1459.46 224c-2.07.011-12.48-15.917-12.48-21.247a12.483 12.483 0 1 1 24.96 0c0 5.254-10.44 21.253-12.48 21.247zm0-31.87a10.516 10.516 0 0 0-10.4 10.623c0 4.442 8.67 18.069 10.4 18.06 1.7.009 10.4-13.678 10.4-18.06a10.516 10.516 0 0 0-10.4-10.628zm0 15.935a5.313 5.313 0 1 1 5.2-5.312 5.259 5.259 0 0 1-5.2 5.307zm0-8.5a3.188 3.188 0 1 0 3.12 3.187 3.156 3.156 0 0 0-3.12-3.191z" transform="translate(-1446.97 -190)"/></svg>