<svg xmlns="http://www.w3.org/2000/svg" width="17.156" height="16.469" viewBox="0 0 17.156 16.469"><defs><style>.cls-1{fill:#6d6e71;fill-rule:evenodd}</style></defs><path id="icon" class="cls-1" d="M651.923 38.491L647.1 35.2h-4.289v4.389a1.085 1.085 0 0 1-1.073 1.1h-1.608a1.085 1.085 0 0 1-1.073-1.1V35.2a.914.914 0 0 1 .011-.1 3.712 3.712 0 0 1-3.228-3.735c0-2.424 1.921-3.84 4.29-3.84h6.97l4.826-3.291a1.085 1.085 0 0 1 1.073 1.1v12.06a1.085 1.085 0 0 1-1.076 1.097zm-11.8.549a.543.543 0 0 0 .536.549h.541a.543.543 0 0 0 .536-.549V35.2h-1.608v3.84zm0-10.423c-1.1-.036-3.218.319-3.218 2.742s2.152 2.743 3.218 2.743h4.289v-5.485h-4.289zm6.97 4.345v-4.345h-1.608V34.1h1.615v-1.14zm4.826 3.06v-10.7l-3.753 2.743v6.583l3.753 2.743v-1.368z" transform="translate(-635.844 -24.219)"/></svg>