<svg xmlns="http://www.w3.org/2000/svg" width="24.72" height="20.344" viewBox="0 0 24.72 20.344"><defs><style>.cls-1{fill:#1faae2;fill-rule:evenodd}</style></defs><path id="twitter" class="cls-1" d="M1424 21.658a5.19 5.19 0 0 1 4.01 1.613 8.154 8.154 0 0 0 2.59-.888l.63-.35a5.147 5.147 0 0 1-1.64 2.414 2.317 2.317 0 0 1-.56.4v.013a9.4 9.4 0 0 0 2.87-.788v.012a8.1 8.1 0 0 1-1.72 2c-.26.212-.53.425-.79.638a15.73 15.73 0 0 1-.23 3.3c-1.27 5.773-4.62 9.692-9.93 11.371a14.961 14.961 0 0 1-7.17.3 18.5 18.5 0 0 1-2.98-.988 11.619 11.619 0 0 1-1.43-.751l-.45-.275a8.169 8.169 0 0 0 1.62.063c.5-.081.99-.06 1.45-.163a10.376 10.376 0 0 0 3.04-1.113 5.691 5.691 0 0 0 1.37-.913 4.235 4.235 0 0 1-1.51-.275 5.12 5.12 0 0 1-3.21-3.29 4.962 4.962 0 0 0 2.26-.1 3.67 3.67 0 0 1-1.66-.676 4.952 4.952 0 0 1-2.38-4.4c.17.083.34.167.52.25a5.309 5.309 0 0 0 1.06.3 1.5 1.5 0 0 0 .69.063h-.02c-.26-.3-.67-.5-.93-.826a5.3 5.3 0 0 1-1.14-4.666 5.928 5.928 0 0 1 .55-1.339.035.035 0 0 0 .02.013 3.182 3.182 0 0 0 .46.538 9.02 9.02 0 0 0 1.51 1.463 14.8 14.8 0 0 0 6.19 3.04 9.537 9.537 0 0 0 2.27.3 4.931 4.931 0 0 1 .03-2.415 5.046 5.046 0 0 1 2.87-3.452 5.937 5.937 0 0 1 1.12-.35z" transform="translate(-1407.19 -21.656)"/></svg>